<svg xmlns="http://www.w3.org/2000/svg" width="20" height="20" viewBox="0 0 20 20"><g><g><path fill="#fff" d="M19.8 17.502v1.25c0 .69-.555 1.25-1.239 1.25h-1.237H1.236c-.684 0-1.238-.56-1.238-1.25V1.248c0-.69.554-1.25 1.238-1.25H18.56c.684 0 1.238.56 1.238 1.25V17.502zM9.898 7.5C7.619 7.5 7.423 10 7.423 10s-.071 2.5 2.476 2.5 2.475-2.5 2.475-2.5-.196-2.5-2.475-2.5zm7.425-5h-3.713v3.75h3.713zm0 7.5V8.75h-2.65c.103.403.175.817.175 1.25V10c0 2.762-2.216 5.001-4.95 5.001s-4.95-2.239-4.95-5c0-.435.071-.85.174-1.251h-2.65v8.752h14.851V10z"/><path fill="#fff" d="M19.8 17.502v1.25c0 .69-.555 1.25-1.239 1.25h-1.237H1.236c-.684 0-1.238-.56-1.238-1.25V1.248c0-.69.554-1.25 1.238-1.25H18.56c.684 0 1.238.56 1.238 1.25V17.502zM9.898 7.5C7.619 7.5 7.423 10 7.423 10s-.071 2.5 2.476 2.5 2.475-2.5 2.475-2.5-.196-2.5-2.475-2.5zm7.425-5h-3.713v3.75h3.713zm0 7.5V8.75h-2.65c.103.403.175.817.175 1.25V10c0 2.762-2.216 5.001-4.95 5.001s-4.95-2.239-4.95-5c0-.435.071-.85.174-1.251h-2.65v8.752h14.851V10z"/></g></g></svg>