<svg xmlns="http://www.w3.org/2000/svg" width="92" height="92" viewBox="0 0 92 92"><g><g><path fill="#969696" d="M88.508 41.938l-46.58 46.593c-4.217 4.22-10.974 4.673-15.718 1.056l-4.632-3.531-.024.013c-.246.149-.496.286-.75.414-.051.027-.103.052-.155.077-.24.116-.481.226-.727.325-.066.026-.133.05-.2.075-.191.073-.384.14-.579.202-.1.032-.2.064-.3.093a11.537 11.537 0 0 1-.934.227c-.208.041-.416.077-.625.107a11.505 11.505 0 0 1-.805.083 11.46 11.46 0 0 1-.968.027c-.119-.002-.237-.003-.356-.009a11.424 11.424 0 0 1-.97-.087c-.226-.03-.453-.064-.678-.108-.078-.015-.155-.034-.232-.05a11.23 11.23 0 0 1-.6-.147c-.068-.018-.135-.034-.202-.054a11.261 11.261 0 0 1-.92-.315c-.246-.095-.49-.198-.73-.312l-.129-.063c-.24-.117-.479-.243-.713-.378l-.055-.03a11.257 11.257 0 0 1-.717-.462l-.127-.09c-.228-.162-.451-.333-.669-.514L8.3 84.98c-.224-.191-.444-.39-.656-.602-.212-.212-.411-.433-.603-.657l-.098-.114a11.29 11.29 0 0 1-.515-.668l-.089-.128a11.388 11.388 0 0 1-.461-.717l-.03-.055c-.136-.234-.261-.473-.379-.714-.02-.043-.043-.085-.063-.128a11.333 11.333 0 0 1-.385-.924c-.088-.24-.17-.482-.242-.727-.02-.067-.036-.134-.054-.202a11.334 11.334 0 0 1-.146-.6c-.017-.077-.036-.154-.05-.232a11.43 11.43 0 0 1-.147-1.002c-.022-.215-.039-.431-.049-.647-.005-.119-.006-.237-.008-.356a11.377 11.377 0 0 1 .065-1.403c.014-.124.027-.247.044-.37a11.513 11.513 0 0 1 .63-2.44c.025-.066.048-.133.075-.2.098-.245.208-.487.324-.726.025-.052.05-.104.077-.156.128-.254.265-.504.414-.75l.013-.024-3.53-4.633C-1.18 61.061-.726 54.301 3.49 50.083l46.58-46.594C54.287-.73 61.045-1.184 65.788 2.433l4.632 3.532.023-.013c.246-.149.498-.287.753-.416l.15-.074c.242-.117.485-.228.732-.327l.194-.073c.194-.073.39-.142.587-.205a11.44 11.44 0 0 1 1.228-.319c.21-.04.419-.077.629-.107.122-.017.243-.03.366-.044a11.575 11.575 0 0 1 1.408-.065c.117.002.234.003.352.008a11.165 11.165 0 0 1 .97.088c.227.03.455.064.68.107.078.015.154.034.231.05.201.044.402.093.601.147.067.019.135.035.202.055a11.396 11.396 0 0 1 .92.314c.246.096.49.199.73.312.043.02.085.043.128.064.241.117.48.242.713.378l.055.03c.244.143.482.299.717.462l.128.089c.227.162.45.334.668.515l.114.098c.224.192.445.39.657.603.212.212.41.432.602.656l.098.115c.181.217.353.44.515.668l.09.128c.162.235.318.473.46.717l.031.055c.136.234.26.472.378.713l.064.129a11.297 11.297 0 0 1 .384.923c.088.24.17.483.242.727.02.067.036.135.054.202.055.2.103.4.147.601.016.077.035.154.05.23a11.346 11.346 0 0 1 .146 1.003c.022.216.04.432.05.649.005.117.006.235.008.352a11.68 11.68 0 0 1-.066 1.409c-.013.122-.026.244-.044.366a11.494 11.494 0 0 1-.337 1.57 11.242 11.242 0 0 1-.294.874c-.024.065-.047.13-.073.195a11.339 11.339 0 0 1-.4.882c-.13.255-.267.506-.416.753l-.013.023 3.53 4.633c3.617 4.745 3.162 11.505-1.055 15.723zm-67.81 40.547c.203-.166.4-.343.59-.533L81.93 21.291c.19-.19.366-.386.532-.59l.034-.042c.076-.095.143-.195.215-.293.09-.124.184-.248.267-.376.073-.112.137-.23.204-.345.057-.098.12-.196.172-.296a7.9 7.9 0 0 0 .569-1.406l.005-.022c.069-.234.127-.471.173-.71l.013-.08c.04-.218.073-.437.095-.658l.009-.126c.017-.204.028-.408.03-.612 0-.056-.003-.112-.004-.167A7.94 7.94 0 0 0 84.22 15a7.959 7.959 0 0 0-.334-1.696 8.04 8.04 0 0 0-.153-.438c-.034-.09-.068-.182-.106-.272a7.932 7.932 0 0 0-.19-.41c-.044-.09-.087-.182-.136-.272-.072-.134-.152-.264-.232-.394-.053-.086-.102-.173-.159-.257a7.887 7.887 0 0 0-.298-.407c-.053-.069-.102-.14-.158-.208a7.935 7.935 0 0 0-1.1-1.101c-.068-.056-.14-.105-.21-.158-.133-.103-.267-.205-.406-.298-.084-.057-.17-.106-.256-.16-.13-.08-.26-.16-.394-.232-.09-.048-.181-.09-.273-.135a7.952 7.952 0 0 0-.409-.19c-.09-.038-.181-.072-.272-.106a7.89 7.89 0 0 0-.698-.228 7.819 7.819 0 0 0-1.231-.238c-.068-.007-.136-.015-.205-.021a8.001 8.001 0 0 0-.566-.027c-.055 0-.111-.003-.167-.003a7.937 7.937 0 0 0-.611.03c-.043.003-.085.004-.127.009-.22.022-.44.054-.658.094l-.08.013a7.904 7.904 0 0 0-.71.173l-.021.006a7.887 7.887 0 0 0-1.406.569c-.1.052-.197.115-.296.172-.116.067-.233.13-.345.204-.128.083-.252.176-.376.267-.098.072-.198.139-.293.216l-.042.033c-.203.166-.4.343-.59.532L10.07 70.73a7.96 7.96 0 0 0-.533.59l-.032.04c-.078.097-.146.199-.219.298-.09.123-.182.245-.264.372-.076.116-.142.236-.21.355-.055.096-.116.19-.166.286a7.898 7.898 0 0 0-.57 1.408l-.003.013c-.07.237-.128.477-.175.718l-.012.075c-.04.22-.073.441-.096.663-.004.041-.005.082-.008.124-.018.204-.028.41-.03.615l.003.165c.003.19.01.379.027.568.006.068.014.135.021.203a8.015 8.015 0 0 0 .312 1.492c.046.148.099.294.154.44.034.09.068.18.105.27.059.139.124.275.19.41.045.092.088.183.136.273.072.134.152.263.232.394.053.085.103.172.159.256.093.14.196.273.299.407.053.07.101.141.157.209a7.937 7.937 0 0 0 1.1 1.1c.068.057.14.105.21.158.133.103.267.206.406.3.084.055.171.105.257.158.13.08.26.16.394.232.089.049.18.091.272.136.135.066.271.132.41.19.09.038.18.071.271.106a7.935 7.935 0 0 0 .697.228 7.993 7.993 0 0 0 1.233.237 7.955 7.955 0 0 0 .771.048c.056.002.11.004.166.003a8.03 8.03 0 0 0 .615-.029l.123-.009a8.03 8.03 0 0 0 .663-.095l.074-.013a7.94 7.94 0 0 0 .718-.175c.005 0 .01-.002.014-.003a7.888 7.888 0 0 0 1.407-.57c.097-.05.19-.11.286-.165.119-.069.24-.135.355-.21.127-.083.249-.175.372-.265.099-.073.2-.14.297-.219zM5.164 63.726l3.052 4.004L67.713 8.215 63.71 5.162c-3.384-2.58-8.205-2.256-11.214.754L5.917 52.509c-3.009 3.01-3.332 7.832-.753 11.217zm80.918-24.214c3.009-3.01 3.333-7.832.753-11.217l-3.051-4.005-59.498 59.516 4.004 3.052c3.384 2.58 8.204 2.257 11.213-.753zm-23.72-9.078c-6.568 1.537-8.317 8.275-8.334 8.343-.09.313-2.133 7.082-8.599 8.595-5.71 1.336-7.67 7.656-7.69 7.72-.114.326-2.635 7.277-8.728 8.703-5.364 1.254-7.254 7.245-7.273 7.305a.658.658 0 0 1-1.258-.383c.083-.275 2.119-6.774 8.232-8.204 5.275-1.233 7.656-7.5 7.773-7.817.152-.497 2.289-7.119 8.644-8.606 5.727-1.34 7.611-7.593 7.63-7.656.07-.284 1.963-7.564 9.303-9.281 6.559-1.535 8.172-8.124 8.187-8.19a.658.658 0 1 1 1.282.3c-.047.2-.826 3.38-3.46 6.014-1.358 1.359-3.21 2.572-5.71 3.157z"/></g></g></svg>